#!OML:ASF H:\LiuWeirdWalks\Patient Classification 1\Patient 1\Session 1\male.ASF
:FULLY-SPECIFIED
:DEGREES
202
root 0.338819 17.8604 -23.2216 4.77857 6.87499 3.36484
lowerback 8.80807 -1.01073 -4.81477
upperback 0.104694 -1.72876 2.15983
thorax -4.62773 -0.723612 5.19609
lowerneck -14.8312 0.183534 1.43441
upperneck -0.497485 0.113154 -2.67765
head 2.42266 -0.0408468 -1.11672
rclavicle -6.26172e-015 1.35174e-014
rhumerus -35.408 -5.18944 -78.3811
rradius 35.5893
rwrist -11.5872
rhand -15.2222 0.381375
rfingers 7.12502
rthumb 10.9504 -29.3131
lclavicle -6.26172e-015 1.35174e-014
lhumerus -40.8717 -1.08657 84.058
lradius 30.8026
lwrist 5.93796
lhand -9.01121 -0.38627
lfingers 7.12502
lthumb 16.9356 28.8954
rfemur -23.066 -11.057 14.07
rtibia 74.007
rfoot 1.47834 -23.0776
rtoes 0.013971
lfemur -18.3932 -0.0649221 -23.8783
ltibia 28.5754
lfoot -13.5341 9.82484
ltoes -12.4963
203
root 0.360116 17.8561 -23.0959 4.76305 6.95332 3.4789
lowerback 8.85519 -0.998919 -4.93896
upperback 0.110105 -1.72942 2.12507
thorax -4.64606 -0.720991 5.23169
lowerneck -14.7633 0.167753 1.39869
upperneck -0.56134 0.100249 -2.73688
head 2.38828 -0.0487979 -1.12967
rclavicle 2.34566e-014 -2.62396e-014
rhumerus -35.3714 -4.92077 -78.5406
rradius 36.0254
rwrist -11.8809
rhand -15.2562 0.415938
rfingers 7.12502
rthumb 10.9177 -29.2802
lclavicle 2.34566e-014 -2.62396e-014
lhumerus -40.9938 -0.956496 83.7826
lradius 30.8722
lwrist 5.93546
lhand -9.40684 -0.322256
lfingers 7.12502
lthumb 16.5548 28.9916
rfemur -24.3186 -11.2366 14.0561
rtibia 74.1432
rfoot -0.078746 -23.1075
rtoes -0.454439
lfemur -17.8761 -0.29471 -24.032
ltibia 28.5984
lfoot -13.8831 10.0578
ltoes -12.2333
204
root 0.380381 17.8491 -22.9699 4.74819 7.01917 3.59915
lowerback 8.9006 -0.97941 -5.07332
upperback 0.115712 -1.72101 2.089
thorax -4.66416 -0.713656 5.27056
lowerneck -14.729 0.158064 1.37479
upperneck -0.577575 0.0941866 -2.80082
head 2.37663 -0.0538695 -1.14643
rclavicle -1.23246e-014 -3.49861e-014
rhumerus -35.358 -4.64646 -78.6903
rradius 36.4732
rwrist -12.1302
rhand -15.2811 0.364474
rfingers 7.12502
rthumb 10.8936 -29.333
lclavicle -1.23246e-014 -3.49861e-014
lhumerus -41.1137 -0.787112 83.493
lradius 30.9635
lwrist 6.00944
lhand -9.82247 -0.212158
lfingers 7.12502
lthumb 16.1546 29.1346
rfemur -25.5349 -11.3451 14.0483
rtibia 74.0872
rfoot -1.62873 -23.0238
rtoes -1.10292
lfemur -17.3761 -0.522966 -24.1888
ltibia 28.6569
lfoot -14.2656 10.2853
ltoes -11.9222
205
root 0.399168 17.8399 -22.8439 4.74323 7.09787 3.74029
lowerback 8.95124 -0.955237 -5.2333
upperback 0.115773 -1.70982 2.04705
thorax -4.69089 -0.703973 5.31776
lowerneck -14.7103 0.138431 1.36539
upperneck -0.556196 0.0732006 -2.86668
head 2.38044 -0.0666709 -1.16779
rclavicle 3.76697e-014 2.8625e-014
rhumerus -35.3627 -4.38583 -78.8274
rradius 36.9211
rwrist -12.3222
rhand -15.3177 0.2467
rfingers 7.12502
rthumb 10.8583 -29.4526
lclavicle 3.76697e-014 2.8625e-014
lhumerus -41.2221 -0.586917 83.1905
lradius 31.0647
lwrist 6.11989
lhand -10.2472 -0.0500669
lfingers 7.12502
lthumb 15.7456 29.3294
rfemur -26.7184 -11.4066 14.0298
rtibia 73.844
rfoot -3.15085 -22.8512
rtoes -1.9189
lfemur -16.8993 -0.738832 -24.364
ltibia 28.7414
lfoot -14.6752 10.4816
ltoes -11.5941
206
root 0.416115 17.8285 -22.7178 4.75564 7.18182 3.86959
lowerback 9.00276 -0.929281 -5.39543
upperback 0.107302 -1.6965 2.0129
thorax -4.72715 -0.692515 5.37442
lowerneck -14.7552 0.126417 1.35922
upperneck -0.46872 0.0626861 -2.93
head 2.41882 -0.0749432 -1.18927
rclavicle 4.76089e-014 -1.19271e-014
rhumerus -35.3614 -4.14636 -78.9489
rradius 37.3288
rwrist -12.4343
rhand -15.3569 0.173797
rfingers 7.12502
rthumb 10.8205 -29.5275
lclavicle 4.76089e-014 -1.19271e-014
lhumerus -41.3309 -0.365998 82.8871
lradius 31.196
lwrist 6.29389
lhand -10.6644 0.160915
lfingers 7.12502
lthumb 15.3438 29.5716
rfemur -27.8841 -11.4061 14.04
rtibia 73.4181
rfoot -4.59985 -22.6085
rtoes -2.80213
lfemur -16.4602 -0.928361 -24.5194
ltibia 28.8514
lfoot -15.1127 10.6463
ltoes -11.3022
207
root 0.431559 17.8158 -22.5907 4.78359 7.29282 4.00454
lowerback 9.04893 -0.906476 -5.56088
upperback 0.0978881 -1.68795 1.97371
thorax -4.76091 -0.683401 5.42801
lowerneck -14.8221 0.108302 1.34127
upperneck -0.368788 0.0453955 -2.97047
head 2.46516 -0.0860147 -1.20192
rclavicle 2.33572e-014 -7.15625e-015
rhumerus -35.3505 -3.93659 -79.0609
rradius 37.6937
rwrist -12.4745
rhand -15.394 0.168856
rfingers 7.12502
rthumb 10.7847 -29.5343
lclavicle 2.33572e-014 -7.15625e-015
lhumerus -41.4208 -0.142811 82.5775
lradius 31.338
lwrist 6.49438
lhand -11.0526 0.377743
lfingers 7.12502
lthumb 14.9698 29.8167
rfemur -29.0138 -11.3718 14.0488
rtibia 72.8123
rfoot -5.93316 -22.3093
rtoes -3.6794
lfemur -16.0431 -1.09202 -24.6743
ltibia 28.9747
lfoot -15.5667 10.7647
ltoes -11.0534
208
root 0.445618 17.8016 -22.4629 4.83196 7.39707 4.11655
lowerback 9.07693 -0.879594 -5.70498
upperback 0.0865944 -1.67083 1.93738
thorax -4.78813 -0.670663 5.4708
lowerneck -14.9136 0.0853931 1.31372
upperneck -0.257667 0.0228693 -2.99337
head 2.51967 -0.0993247 -1.20776
rclavicle -3.43897e-014 1.51076e-014
rhumerus -35.319 -3.75303 -79.1659
rradius 38.0078
rwrist -12.4554
rhand -15.4325 0.22675
rfingers 7.12502
rthumb 10.7476 -29.4783
lclavicle -3.43897e-014 1.51076e-014
lhumerus -41.5023 0.0714767 82.2709
lradius 31.5114
lwrist 6.78429
lhand -11.4008 0.550993
lfingers 7.12502
lthumb 14.6343 30.0146
rfemur -30.125 -11.2685 14.0841
rtibia 72.0351
rfoot -7.14992 -21.9547
rtoes -4.55191
lfemur -15.6565 -1.22392 -24.7984
ltibia 29.1067
lfoot -16.0302 10.8616
ltoes -10.8748
209
root 0.458677 17.7872 -22.3338 4.89723 7.51293 4.21061
lowerback 9.09642 -0.856585 -5.82579
upperback 0.0724936 -1.65601 1.90318
thorax -4.81383 -0.659531 5.50259
lowerneck -15.0103 0.0610979 1.28324
upperneck -0.159601 -0.00130355 -3.01305
head 2.57069 -0.113346 -1.2121
rclavicle -5.53615e-014 1.35174e-014
rhumerus -35.2817 -3.57231 -79.2683
rradius 38.2898
rwrist -12.4097
rhand -15.4788 0.31229
rfingers 7.12502
rthumb 10.7029 -29.3951
lclavicle -5.53615e-014 1.35174e-014
lhumerus -41.5817 0.284803 81.9682
lradius 31.7153
lwrist 7.13419
lhand -11.7029 0.676337
lfingers 7.12502
lthumb 14.3433 30.1609
rfemur -31.2044 -11.126 14.1341
rtibia 71.0867
rfoot -8.21008 -21.5601
rtoes -5.3439
lfemur -15.2816 -1.32883 -24.8959
ltibia 29.2292
lfoot -16.4975 10.9191
ltoes -10.7393
210
root 0.470892 17.7726 -22.2035 4.97285 7.62785 4.29233
lowerback 9.10333 -0.841787 -5.92712
upperback 0.0888063 -1.64841 1.87571
thorax -4.79974 -0.654625 5.53014
lowerneck -15.2198 0.049942 1.24605
upperneck -0.0507863 -0.00666473 -3.04007
head 2.64695 -0.119267 -1.21745
rclavicle 1.66979e-014 2.38542e-014
rhumerus -35.162 -3.37469 -79.373
rradius 38.5249
rwrist -12.344
rhand -15.5247 0.410373
rfingers 7.12502
rthumb 10.6586 -29.2993
lclavicle 1.66979e-014 2.38542e-014
lhumerus -41.5953 0.531307 81.6758
lradius 31.9304
lwrist 7.55343
lhand -11.9995 0.74268
lfingers 7.12502
lthumb 14.0575 30.2473
rfemur -32.2398 -10.938 14.1833
rtibia 69.9764
rfoot -9.17592 -21.1153
rtoes -6.04931
lfemur -14.9038 -1.42601 -24.9742
ltibia 29.3299
lfoot -16.9566 10.962
ltoes -10.6143
211
root 0.482317 17.7585 -22.0722 5.0625 7.74567 4.37176
lowerback 9.10519 -0.83047 -6.01822
upperback 0.116297 -1.64372 1.85003
thorax -4.77084 -0.652255 5.55366
lowerneck -15.4878 0.0646334 1.23014
upperneck 0.0457839 0.0195234 -3.09344
head 2.73118 -0.110928 -1.23355
rclavicle -7.15625e-015 2.06736e-014
rhumerus -35.0172 -3.16275 -79.4755
rradius 38.7463
rwrist -12.3056
rhand -15.5717 0.479152
rfingers 7.12502
rthumb 10.6133 -29.2328
lclavicle -7.15625e-015 2.06736e-014
lhumerus -41.5753 0.780608 81.4021
lradius 32.1577
lwrist 8.04632
lhand -12.2784 0.751564
lfingers 7.12502
lthumb 13.7887 30.2746
rfemur -33.2349 -10.7216 14.219
rtibia 68.7069
rfoot -10.0066 -20.6452
rtoes -6.6713
lfemur -14.5162 -1.50543 -25.0455
ltibia 29.3874
lfoot -17.3901 10.9811
ltoes -10.4995
212
root 0.492294 17.7458 -21.9395 5.15688 7.87075 4.43032
lowerback 9.09839 -0.830333 -6.08802
upperback 0.163986 -1.65013 1.83466
thorax -4.71448 -0.657387 5.57658
lowerneck -15.8581 0.109785 1.23233
upperneck 0.165681 0.0846168 -3.17427
head 2.84426 -0.0853844 -1.2603
rclavicle 6.26172e-015 1.19271e-014
rhumerus -34.8299 -2.92418 -79.5807
rradius 38.9422
rwrist -12.2957
rhand -15.6288 0.490979
rfingers 7.12502
rthumb 10.5582 -29.2238
lclavicle 6.26172e-015 1.19271e-014
lhumerus -41.5204 1.04619 81.1467
lradius 32.4051
lwrist 8.61251
lhand -12.5402 0.74883
lfingers 7.12502
lthumb 13.5364 30.2888
rfemur -34.1757 -10.4684 14.2645
rtibia 67.2834
rfoot -10.7365 -20.1853
rtoes -7.17971
lfemur -14.1057 -1.58174 -25.085
ltibia 29.3891
lfoot -17.7898 10.9857
ltoes -10.3888
213
root 0.500857 17.7346 -21.8058 5.26322 8.00743 4.49609
lowerback 9.0815 -0.834202 -6.16507
upperback 0.221702 -1.66171 1.81912
thorax -4.64094 -0.665913 5.6035
lowerneck -16.2434 0.209227 1.3494
upperneck 0.254515 0.205924 -3.37647
head 2.95313 -0.03675 -1.34398
rclavicle 2.78299e-015 -1.59028e-014
rhumerus -34.617 -2.69291 -79.6794
rradius 39.1105
rwrist -12.3142
rhand -15.6746 0.455933
rfingers 7.12502
rthumb 10.514 -29.2611
lclavicle 2.78299e-015 -1.59028e-014
lhumerus -41.4284 1.30481 80.912
lradius 32.6431
lwrist 9.20625
lhand -12.7986 0.728583
lfingers 7.12502
lthumb 13.2873 30.285
rfemur -35.0632 -10.1915 14.283
rtibia 65.7158
rfoot -11.3779 -19.7541
rtoes -7.60709
lfemur -13.671 -1.65096 -25.1243
ltibia 29.3202
lfoot -18.141 10.9663
ltoes -10.2658
214
root 0.508041 17.7249 -21.6711 5.3919 8.13615 4.56842
lowerback 9.0471 -0.830442 -6.25216
upperback 0.266458 -1.66373 1.79518
thorax -4.57255 -0.669104 5.62577
lowerneck -16.5725 0.305084 1.47436
upperneck 0.3097 0.319795 -3.57337
head 3.04037 0.00876536 -1.42729
rclavicle 2.51463e-014 -7.15625e-015
rhumerus -34.431 -2.49549 -79.7665
rradius 39.243
rwrist -12.3296
rhand -15.7056 0.458816
rfingers 7.12502
rthumb 10.4841 -29.2597
lclavicle 2.51463e-014 -7.15625e-015
lhumerus -41.355 1.5059 80.7017
lradius 32.9139
lwrist 9.83132
lhand -13.0179 0.789556
lfingers 7.12502
lthumb 13.076 30.3597
rfemur -35.9125 -9.87801 14.2731
rtibia 64.0162
rfoot -11.9492 -19.3596
rtoes -7.97539
lfemur -13.2197 -1.7145 -25.1646
ltibia 29.1737
lfoot -18.4433 10.9407
ltoes -10.145
215
root 0.513595 17.7169 -21.5351 5.53394 8.27689 4.65804
lowerback 9.01491 -0.820892 -6.35846
upperback 0.290718 -1.66125 1.75625
thorax -4.52759 -0.668394 5.6431
lowerneck -16.821 0.380171 1.60662
upperneck 0.351807 0.404183 -3.76489
head 3.10765 0.0404405 -1.51185
rclavicle 3.29983e-014 -1.43125e-014
rhumerus -34.2916 -2.34162 -79.8484
rradius 39.3475
rwrist -12.3699
rhand -15.7389 0.441937
rfingers 7.12502
rthumb 10.4521 -29.2782
lclavicle 3.29983e-014 -1.43125e-014
lhumerus -41.3139 1.64387 80.505
lradius 33.1999
lwrist 10.4302
lhand -13.21 0.892068
lfingers 7.12502
lthumb 12.8908 30.4739
rfemur -36.7065 -9.54588 14.2212
rtibia 62.197
rfoot -12.4117 -19.0335
rtoes -8.33782
lfemur -12.7371 -1.77568 -25.2135
ltibia 28.9455
lfoot -18.7067 10.8894
ltoes -10.0263
